#!OML:ASF F:\VICON\USERDATA\INSTALL\rory3\rory3.ASF
:FULLY-SPECIFIED
:DEGREES
4128
root 0.287809 10.1652 -7.75679 336.134 26.0883 -361.142
lowerback 36.8788 -1.93054 -2.0024
upperback 15.2747 -2.68697 -2.89325
thorax -1.58368 -1.07348 -1.10509
lowerneck -3.6446 -11.1366 -17.2745
upperneck -12.034 -13.3668 22.4785
head 0.0362331 -6.67093 9.36009
rclavicle 2.78299e-015 -1.98785e-014
rhumerus 58.9373 36.6502 -31.0875
rradius 77.5726
rwrist 25.5169
rhand -18.5851 -6.85269
rfingers 7.12502
rthumb 7.70567 -36.6923
lclavicle 2.78299e-015 -1.98785e-014
lhumerus 25.1257 -32.2731 54.7091
lradius 64.1089
lwrist -35.5389
lhand -60.0952 58.4942
lfingers 7.12502
lthumb -32.2425 445.651
rfemur -108.673 -28.5037 29.9794
rtibia 136.559
rfoot 33.498 -10.3056
rtoes 18.7315
lfemur -65.7203 31.6932 1.43088
ltibia 108.389
lfoot -2.68778 -28.385
ltoes 9.38459
4129
root 0.28844 10.1637 -7.75658 336.083 26.0661 -361.12
lowerback 36.9451 -1.92027 -2.08398
upperback 15.2907 -2.70329 -2.92286
thorax -1.58522 -1.08381 -1.08761
lowerneck -2.98872 -10.9641 -17.277
upperneck -12.7346 -13.1428 22.3792
head -0.323378 -6.60011 9.42311
rclavicle 1.59028e-015 -1.11319e-014
rhumerus 58.7822 36.7988 -31.3362
rradius 77.5435
rwrist 25.6705
rhand -18.7384 -6.57098
rfingers 7.12502
rthumb 7.55763 -36.416
lclavicle 1.59028e-015 -1.11319e-014
lhumerus 25.1383 -32.1863 54.691
lradius 64.0503
lwrist -35.6285
lhand -60.0803 57.2663
lfingers 7.12502
lthumb -32.2283 444.426
rfemur -108.627 -28.5609 29.963
rtibia 136.588
rfoot 33.3891 -10.3532
rtoes 18.7861
lfemur -65.5969 31.629 1.50552
ltibia 108.401
lfoot -2.6313 -28.376
ltoes 9.31406
4130
root 0.290084 10.1618 -7.75632 336.097 26.0984 -361.035
lowerback 36.9237 -1.90214 -2.21481
upperback 15.3338 -2.72216 -2.96145
thorax -1.52658 -1.0979 -1.05509
lowerneck -3.19607 -11.112 -17.3118
upperneck -12.6512 -13.3334 22.2547
head -0.239716 -6.67785 9.35169
rclavicle -2.82274e-014 7.95139e-015
rhumerus 58.6874 36.8167 -31.4861
rradius 77.5444
rwrist 25.7519
rhand -18.7113 -6.52998
rfingers 7.12502
rthumb 7.58385 -36.374
lclavicle -2.82274e-014 7.95139e-015
lhumerus 25.1608 -32.0798 54.7125
lradius 64.0153
lwrist -35.6797
lhand -59.8317 55.4094
lfingers 7.12502
lthumb -31.9916 442.617
rfemur -108.638 -28.7146 29.8781
rtibia 136.621
rfoot 33.2089 -10.3528
rtoes 18.9331
lfemur -65.5332 31.526 1.44817
ltibia 108.41
lfoot -2.57041 -28.3466
ltoes 9.73728
4131
root 0.290679 10.1592 -7.75629 336.153 26.0677 -361.04
lowerback 36.7808 -1.88227 -2.29833
upperback 15.3856 -2.7196 -2.9635
thorax -1.41938 -1.10303 -1.01803
lowerneck -3.11046 -11.1429 -17.4588
upperneck -12.9208 -13.3522 22.3573
head -0.305498 -6.69212 9.42338
rclavicle -2.94201e-014 3.02153e-014
rhumerus 58.7197 36.736 -31.4685
rradius 77.5903
rwrist 25.7485
rhand -18.7602 -6.40392
rfingers 7.12502
rthumb 7.53663 -36.2497
lclavicle -2.94201e-014 3.02153e-014
lhumerus 25.179 -32.0101 54.6676
lradius 64.106
lwrist -35.4626
lhand -59.4651 53.7184
lfingers 7.12502
lthumb -31.6424 440.995
rfemur -108.753 -28.6484 29.9269
rtibia 136.64
rfoot 33.1732 -10.287
rtoes 18.628
lfemur -65.6686 31.5905 1.29046
ltibia 108.401
lfoot -3.29014 -28.2009
ltoes 7.73293
4132
root 0.291243 10.158 -7.75678 336.158 26.0312 -361.072
lowerback 36.7059 -1.87522 -2.36346
upperback 15.4176 -2.73062 -2.98462
thorax -1.35775 -1.11241 -1.00454
lowerneck -3.05572 -11.1094 -17.6228
upperneck -13.1579 -13.277 22.5369
head -0.365731 -6.65897 9.52994
rclavicle 2.78299e-015 6.36111e-015
rhumerus 58.7264 36.6951 -31.5326
rradius 77.6443
rwrist 25.7864
rhand -18.7327 -6.15642
rfingers 7.12502
rthumb 7.56317 -36.0012
lclavicle 2.78299e-015 6.36111e-015
lhumerus 25.1802 -32.0149 54.5105
lradius 64.2299
lwrist -35.2691
lhand -59.3229 53.5343
lfingers 7.12502
lthumb -31.507 440.838
rfemur -108.806 -28.5794 29.9874
rtibia 136.648
rfoot 33.1839 -10.2209
rtoes 18.1693
lfemur -65.7507 31.6379 1.18916
ltibia 108.389
lfoot -4.06765 -28.0493
ltoes 5.50048
4133
root 0.290526 10.16 -7.7595 336.146 26.0283 -361.066
lowerback 36.6912 -1.86771 -2.45052
upperback 15.4387 -2.75204 -3.05722
thorax -1.32948 -1.12439 -1.02883
lowerneck -3.04102 -11.0736 -17.5411
upperneck -13.3519 -13.2059 22.5409
head -0.442097 -6.62975 9.53553
rclavicle -7.95139e-015 -3.02153e-014
rhumerus 58.6686 36.6762 -31.7476
rradius 77.6632
rwrist 25.8101
rhand -18.6229 -6.10929
rfingers 7.12502
rthumb 7.66918 -35.9502
lclavicle -7.95139e-015 -3.02153e-014
lhumerus 25.2802 -32.1546 54.1074
lradius 64.3861
lwrist -35.1088
lhand -59.3612 54.13
lfingers 7.12502
lthumb -31.5435 441.426
rfemur -108.765 -28.6002 29.9808
rtibia 136.622
rfoot 33.1218 -10.0428
rtoes 17.8055
lfemur -65.6601 31.5586 1.32849
ltibia 108.393
lfoot -3.40638 -28.1649
ltoes 7.47393
4134
root 0.290624 10.1618 -7.76195 336.154 26.0273 -361.038
lowerback 36.6612 -1.84863 -2.52812
upperback 15.4872 -2.75235 -3.11961
thorax -1.26596 -1.12579 -1.0551
lowerneck -3.0436 -11.0494 -17.4624
upperneck -13.6161 -13.139 22.5559
head -0.533262 -6.60269 9.54685
rclavicle -3.33958e-014 -1.74931e-014
rhumerus 58.6227 36.5893 -31.9034
rradius 77.619
rwrist 25.7884
rhand -18.7312 -5.93688
rfingers 7.12502
rthumb 7.56457 -35.7816
lclavicle -3.33958e-014 -1.74931e-014
lhumerus 25.484 -32.3114 53.6494
lradius 64.5636
lwrist -34.8863
lhand -59.4387 54.8369
lfingers 7.12502
lthumb -31.6173 442.119
rfemur -108.755 -28.6392 29.9794
rtibia 136.607
rfoot 33.0649 -9.79135
rtoes 17.663
lfemur -65.5742 31.4905 1.44358
ltibia 108.4
lfoot -2.67392 -28.2497
ltoes 9.59866
4135
root 0.29322 10.161 -7.76259 336.193 26.0366 -360.96
lowerback 36.6557 -1.81922 -2.58645
upperback 15.5181 -2.73476 -3.18312
thorax -1.23056 -1.11647 -1.09754
lowerneck -3.09573 -11.0552 -17.456
upperneck -13.822 -13.1113 22.6022
head -0.583898 -6.58972 9.57007
rclavicle -2.90226e-014 2.46493e-014
rhumerus 58.4743 36.4908 -32.0581
rradius 77.606
rwrist 25.7511
rhand -18.8703 -5.58233
rfingers 7.12502
rthumb 7.43038 -35.4318
lclavicle -2.90226e-014 2.46493e-014
lhumerus 25.5728 -32.3474 53.5249
lradius 64.6059
lwrist -34.8865
lhand -59.4806 54.9426
lfingers 7.12502
lthumb -31.6572 442.217
rfemur -108.818 -28.7124 29.9391
rtibia 136.623
rfoot 33.0416 -9.65942
rtoes 17.5148
lfemur -65.6249 31.4715 1.22282
ltibia 108.393
lfoot -3.39386 -28.0659
ltoes 7.67669
4136
root 0.295005 10.1607 -7.76355 336.24 26.0281 -360.882
lowerback 36.651 -1.78305 -2.65955
upperback 15.5245 -2.71519 -3.2279
thorax -1.22032 -1.10818 -1.11284
lowerneck -3.07488 -11.0339 -17.4118
upperneck -14.096 -13.0526 22.5672
head -0.683072 -6.56448 9.57213
rclavicle 6.75868e-015 3.26007e-014
rhumerus 58.3173 36.4486 -32.1912
rradius 77.6563
rwrist 25.7225
rhand -18.8877 -5.53282
rfingers 7.12502
rthumb 7.41354 -35.3829
lclavicle 6.75868e-015 3.26007e-014
lhumerus 25.497 -32.3229 53.5917
lradius 64.6184
lwrist -34.9734
lhand -59.4918 54.5422
lfingers 7.12502
lthumb -31.6679 441.814
rfemur -108.876 -28.7341 29.8939
rtibia 136.626
rfoot 33.0858 -9.55147
rtoes 17.2504
lfemur -65.6709 31.4592 1.01083
ltibia 108.378
lfoot -4.2039 -27.8848
ltoes 5.47734
4137
root 0.296032 10.1608 -7.7659 336.281 26.0102 -360.86
lowerback 36.6185 -1.77445 -2.72534
upperback 15.5363 -2.72576 -3.24545
thorax -1.19419 -1.1168 -1.09435
lowerneck -3.09933 -10.9948 -17.421
upperneck -14.3618 -12.9631 22.5434
head -0.773681 -6.51915 9.58678
rclavicle 3.81667e-014 -9.54166e-015
rhumerus 58.3049 36.417 -32.2467
rradius 77.6895
rwrist 25.7397
rhand -18.937 -5.5468
rfingers 7.12502
rthumb 7.36596 -35.3986
lclavicle 3.81667e-014 -9.54166e-015
lhumerus 25.4999 -32.3516 53.4667
lradius 64.6647
lwrist -34.8764
lhand -59.5565 54.3069
lfingers 7.12502
lthumb -31.7295 441.567
rfemur -108.895 -28.7355 29.8859
rtibia 136.606
rfoot 33.1322 -9.54048
rtoes 17.462
lfemur -65.6256 31.3889 1.1296
ltibia 108.397
lfoot -3.53272 -28.0023
ltoes 7.5137
4138
root 0.297703 10.1605 -7.7684 336.289 25.9856 -360.902
lowerback 36.5785 -1.77886 -2.71608
upperback 15.5655 -2.72594 -3.25838
thorax -1.15063 -1.11654 -1.11383
lowerneck -3.1076 -10.9809 -17.4403
upperneck -14.6198 -12.9079 22.5992
head -0.848984 -6.49443 9.62585
rclavicle -2.26615e-014 1.74931e-014
rhumerus 58.2827 36.3399 -32.3227
rradius 77.7172
rwrist 25.7678
rhand -18.9053 -5.4607
rfingers 7.12502
rthumb 7.39652 -35.3114
lclavicle -2.26615e-014 1.74931e-014
lhumerus 25.6451 -32.4289 53.2444
lradius 64.7047
lwrist -34.7258
lhand -59.6413 54.1055
lfingers 7.12502
lthumb -31.8103 441.349
rfemur -108.894 -28.7256 29.9229
rtibia 136.578
rfoot 33.0592 -9.46583
rtoes 17.5164
lfemur -65.6062 31.3407 1.30599
ltibia 108.43
lfoot -2.79634 -28.0904
ltoes 9.61651
